<svg xmlns="http://www.w3.org/2000/svg" viewBox="0 0 500 500">
  <rect width="500" height="500" fill="#f5f5f5"/>
  <g transform="translate(250, 250)">
    <!-- Cat silhouette -->
    <path d="M -80,-60 L -100,-100 L -70,-80 L -60,-100 L -50,-80 L -40,-100 L -30,-80 L -20,-100 L -10,-80 L 0,-100 L 10,-80 L 20,-100 L 30,-80 L 40,-100 L 50,-80 L 70,-80 L 100,-100 L 80,-60 Q 90,-40 90,0 Q 90,60 60,80 L 60,100 L 40,100 L 40,80 L 20,80 L 20,100 L 0,100 L 0,80 L -20,80 L -20,100 L -40,100 L -40,80 L -60,80 Q -90,60 -90,0 Q -90,-40 -80,-60 Z" fill="#9ca3af" stroke="#6b7280" stroke-width="2"/>
    
    <!-- Eyes -->
    <circle cx="-30" cy="-20" r="8" fill="#374151"/>
    <circle cx="30" cy="-20" r="8" fill="#374151"/>
    <circle cx="-28" cy="-22" r="3" fill="#ffffff"/>
    <circle cx="32" cy="-22" r="3" fill="#ffffff"/>
    
    <!-- Nose -->
    <path d="M 0,10 L -5,20 L 5,20 Z" fill="#6b7280"/>
    
    <!-- Mouth -->
    <path d="M 0,20 Q -15,30 -20,25 M 0,20 Q 15,30 20,25" stroke="#6b7280" stroke-width="2" fill="none"/>
    
    <!-- Whiskers -->
    <line x1="-50" y1="0" x2="-90" y2="-5" stroke="#6b7280" stroke-width="1.5"/>
    <line x1="-50" y1="10" x2="-90" y2="10" stroke="#6b7280" stroke-width="1.5"/>
    <line x1="-50" y1="20" x2="-90" y2="25" stroke="#6b7280" stroke-width="1.5"/>
    <line x1="50" y1="0" x2="90" y2="-5" stroke="#6b7280" stroke-width="1.5"/>
    <line x1="50" y1="10" x2="90" y2="10" stroke="#6b7280" stroke-width="1.5"/>
    <line x1="50" y1="20" x2="90" y2="25" stroke="#6b7280" stroke-width="1.5"/>
  </g>
  
  <!-- Text -->
  <text x="250" y="420" font-family="Arial, sans-serif" font-size="20" fill="#9ca3af" text-anchor="middle">画像なし</text>
</svg>
